# xmcd CD database file
#
# Track frame offsets:
#	150
#	16256
#	29490
#	43760
#	56308
#	70460
#	84209
#	100842
#	121780
#	137025
#	156018
#	170516
#	185874
#	201466
#	215360
#	231302
#	243245
#	257902
#	272363
#	287314
#
# Disc length: 4126 seconds
#
# Revision: 1
# Processed by: cddbd v1.5.2PL0 Copyright (c) Steve Scherf et al.
# Submitted via: CDex 1.70beta2
#
DISCID=19101c14
DTITLE=Daniel - Só Batidão
DYEAR=1900
DGENRE=Country
TTITLE0=Sombra Boa e Água Fresca
TTITLE1=Bota pra Moer
TTITLE2=Machuca Eu
TTITLE3=O Amor é Poderoso
TTITLE4=Direto no Coração
TTITLE5=Brasil, Samba e Forró
TTITLE6=Dá-me,Dá-me
TTITLE7=A Gata do Milênio
TTITLE8=Estourou um Cano
TTITLE9=Bem Simplesinho
TTITLE10=Sou Maluco por Mulher
TTITLE11=Só Depois do Casamento
TTITLE12=É Gol
TTITLE13=Vou de Fusca
TTITLE14=Pra Tomar Coragem
TTITLE15=Carro e Mulher
TTITLE16=Pode Passar o Rodo
TTITLE17=Show de Bola
TTITLE18=Já To no Grude
TTITLE19=Pout Pourri
EXTD=
EXTT0=
EXTT1=
EXTT2=
EXTT3=
EXTT4=
EXTT5=
EXTT6=
EXTT7=
EXTT8=
EXTT9=
EXTT10=
EXTT11=
EXTT12=
EXTT13=
EXTT14=
EXTT15=
EXTT16=
EXTT17=
EXTT18=
EXTT19=
PLAYORDER=
